<svg xmlns="http://www.w3.org/2000/svg" width="48" height="48" viewBox="0 0 48 48">
  <path d="M12.5 6C8.9280619 6 6 8.9280619 6 12.5L6 35.5C6 39.071938 8.9280619 42 12.5 42L35.5 42C39.071938 42 42 39.071938 42 35.5L42 12.5C42 8.9280619 39.071938 6 35.5 6L12.5 6 z M 12.5 9L35.5 9C37.450062 9 39 10.549938 39 12.5L39 14L9 14L9 12.5C9 10.549938 10.549938 9 12.5 9 z M 9 17L39 17L39 35.5C39 37.450062 37.450062 39 35.5 39L12.5 39C10.549938 39 9 37.450062 9 35.5L9 17 z M 15.5 21 A 2.5 2.5 0 0 0 15.5 26 A 2.5 2.5 0 0 0 15.5 21 z M 24 21 A 2.5 2.5 0 0 0 24 26 A 2.5 2.5 0 0 0 24 21 z M 32.5 21 A 2.5 2.5 0 0 0 32.5 26 A 2.5 2.5 0 0 0 32.5 21 z M 15.5 30 A 2.5 2.5 0 0 0 15.5 35 A 2.5 2.5 0 0 0 15.5 30 z M 24 30 A 2.5 2.5 0 0 0 24 35 A 2.5 2.5 0 0 0 24 30 z" fill="#969696" />
</svg>