<svg xmlns="http://www.w3.org/2000/svg" viewBox="0 0 48 48">
  <path d="M24 4C12.972066 4 4 12.972074 4 24C4 35.027926 12.972066 44 24 44C35.027934 44 44 35.027926 44 24C44 12.972074 35.027934 4 24 4 z M 24 7C33.406615 7 41 14.593391 41 24C41 33.406609 33.406615 41 24 41C14.593385 41 7 33.406609 7 24C7 14.593391 14.593385 7 24 7 z M 22.476562 11.978516 A 1.50015 1.50015 0 0 0 21 13.5L21 24.5 A 1.50015 1.50015 0 0 0 21.439453 25.560547L26.439453 30.560547 A 1.50015 1.50015 0 1 0 28.560547 28.439453L24 23.878906L24 13.5 A 1.50015 1.50015 0 0 0 22.476562 11.978516 z" fill="#969696" />
</svg>